<svg xmlns="http://www.w3.org/2000/svg" xmlns:xlink="http://www.w3.org/1999/xlink" width="90" height="90" viewBox="0 0 90 90">
    <defs>
        <circle id="a" cx="45" cy="45" r="45"/>
    </defs>
    <g fill="none" fill-rule="evenodd">
        <mask id="b" fill="#fff">
            <use xlink:href="#a"/>
        </mask>
        <use fill="#01098F" fill-rule="nonzero" xlink:href="#a"/>
        <g mask="url(#b)">
            <path fill="#FFF" d="M66.335 57.99c-.237-1.614-.45-2.374-.759-3.3l-2.346-7.503H52.8l-1.873 2.47 1.683 5.08c.332 1.069.688 1.9 1.304 3.253h-5.926l-.972-3.252-2.37 3.252h-4.764l-1.02-3.229-2.512 3.23h-4.765c.119-.096.214-.19.308-.285 1.21-1.07 1.968-2.043 2.632-2.921l3.034-3.989-1.186-3.609H25.968l-8.13 10.803h-5.05c1.92-1.662 2.418-2.184 3.13-3.134l15.407-20.395c.213-.285.403-.57.568-.879.285-.475.546-1.02.688-1.686h5.001c0 1.116.166 1.734.403 2.589L41.493 45.5l1.802-2.374-2.868-8.761c-.214-.641-.474-1.472-.996-2.47H45.5c.166.974.332 1.757.593 2.612l1.114 3.443 2.607-3.466c.593-.808 1.399-1.71 1.755-2.589h5.31c-1.044.832-1.708 1.71-2.347 2.541l-5.88 7.812 1.02 3.229 8.415-11.017c.213-.332.45-.618.687-.926.308-.475.57-.973.735-1.639h4.955c.07.879.189 1.639.426 2.446l6.376 20.372c.308 1.092.522 1.757 1.328 3.276h-6.258z"/>
            <path fill="#01098F" d="M28.125 44.196h7.232l-2.194-6.428zM42.59 49.616l1.234 3.42 1.98-2.272-1.363-3.353zM55.446 44.196h7.233l-2.27-6.428z"/>
            <path fill="#FF1621" d="M53.036 30.536h4.374L85.982-7.232h-4.374z"/>
        </g>
    </g>
</svg>
